<?xml version="1.0" encoding="utf-8"?>
<!-- Generator: Adobe Illustrator 26.3.1, SVG Export Plug-In . SVG Version: 6.00 Build 0)  -->
<svg version="1.1" id="Layer_1" xmlns="http://www.w3.org/2000/svg" xmlns:xlink="http://www.w3.org/1999/xlink" x="0px" y="0px"
	 viewBox="0 0 5803.8 8192" style="enable-background:new 0 0 5803.8 8192;" xml:space="preserve">
<style type="text/css">
	.st0{fill:#E44D26;}
	.st1{fill:#F16529;}
	.st2{fill:#FFFFFF;}
	.st3{fill:#EBEBEB;}
</style>
<path class="st0" d="M5275,7533.3L2898.4,8192L528.1,7533.9L0,1610h5803.8"/>
<path class="st1" d="M5274.5,2094H2901.9v5594.2L4822.3,7156"/>
<path class="st2" d="M4719.6,2820.6H2899.6v726.6h1755.1 M4589,4291.3H2899.6v2643.6l1489.8-413.2 M2899.6,5017.9h895.5l-84.2,942.5
	l-811.4,218.8"/>
<path class="st3" d="M1275.7,5017.9h1625.6v-726.6h-961.7l-66.2-744h1027.8v-726.6H1079.5 M1409.7,6522.3l1489.8,412.6l2.3-0.6
	v-755.6l-2.3,0.6L2089.4,5961l-51.7-579.8h-729.5"/>
<path d="M1247.2,0v365.1H909.4V0 M540.3,0v1104.5h369.1V734.8h337.8v369.7h369.1V0 M1776.5,0v366.2h0.6h325v738.2h369.1V366.2h325V0
	 M3816,0l-236.2,388.3L3343,0 M2958.2,0v1104.5h361V557.2l254.2,392.9h6.4L3834,557.2v547.3h367.4V0 M4385.3,0v1104.5h888.6V739.4
	h-519.4V0"/>
</svg>
