<?xml version="1.0" encoding="utf-8"?>
<!-- Generator: Adobe Illustrator 26.3.1, SVG Export Plug-In . SVG Version: 6.00 Build 0)  -->
<svg version="1.1" id="Layer_1" xmlns="http://www.w3.org/2000/svg" xmlns:xlink="http://www.w3.org/1999/xlink" x="0px" y="0px"
	 viewBox="0 0 500 500" style="enable-background:new 0 0 500 500;" xml:space="preserve">
<g>
	<path d="M499.42,117.22l-62.06,150.66c-68.9,167.28-305.82,167.28-374.72,0L0.58,117.22c-2.07-5.03,1.62-10.54,7.06-10.54h74.95
		c30.2,0,57.41,18.22,68.91,46.14l72.53,176.09c9.55,23.18,42.38,23.18,51.93,0l0,0c2.82-6.85,2.82-14.54,0-21.39l-78.38-190.29
		c-2.07-5.03,1.63-10.54,7.06-10.54h74.95c30.2,0,57.41,18.22,68.91,46.14l0,0l0,0c11.5-27.92,38.71-46.14,68.91-46.14h74.95
		C497.79,106.67,501.49,112.19,499.42,117.22z"/>
</g>
</svg>
